<svg xmlns="http://www.w3.org/2000/svg" viewBox="0 0 48 48" version="1.1">
    <defs>
        <linearGradient id="linearGradient3764" x1="1" x2="47" gradientUnits="userSpaceOnUse" gradientTransform="matrix(0,-1,1,0,-1.5e-6,47.999998)">
            <stop style="stop-color:#3d3d3d;stop-opacity:1"/>
            <stop offset="1" style="stop-color:#474747;stop-opacity:1"/>
        </linearGradient>
    </defs>
    <g> 
        <path d="m 36.31 5 c 5.859 4.062 9.688 10.831 9.688 18.5 c 0 12.426 -10.07 22.5 -22.5 22.5 c -7.669 0 -14.438 -3.828 -18.5 -9.688 c 1.037 1.822 2.306 3.499 3.781 4.969 c 4.085 3.712 9.514 5.969 15.469 5.969 c 12.703 0 23 -10.298 23 -23 c 0 -5.954 -2.256 -11.384 -5.969 -15.469 c -1.469 -1.475 -3.147 -2.744 -4.969 -3.781 z m 4.969 3.781 c 3.854 4.113 6.219 9.637 6.219 15.719 c 0 12.703 -10.297 23 -23 23 c -6.081 0 -11.606 -2.364 -15.719 -6.219 c 4.16 4.144 9.883 6.719 16.219 6.719 c 12.703 0 23 -10.298 23 -23 c 0 -6.335 -2.575 -12.06 -6.719 -16.219 z" style="opacity:0.05"/>
        <path d="m 41.28 8.781 c 3.712 4.085 5.969 9.514 5.969 15.469 c 0 12.703 -10.297 23 -23 23 c -5.954 0 -11.384 -2.256 -15.469 -5.969 c 4.113 3.854 9.637 6.219 15.719 6.219 c 12.703 0 23 -10.298 23 -23 c 0 -6.081 -2.364 -11.606 -6.219 -15.719 z" style="opacity:0.1"/>
        <path d="m 31.25 2.375 c 8.615 3.154 14.75 11.417 14.75 21.13 c 0 12.426 -10.07 22.5 -22.5 22.5 c -9.708 0 -17.971 -6.135 -21.12 -14.75 a 23 23 0 0 0 44.875 -7 a 23 23 0 0 0 -16 -21.875 z" style="opacity:0.2"/>
    </g>
    <g>
        <path d="m 24 1 c 12.703 0 23 10.297 23 23 c 0 12.703 -10.297 23 -23 23 -12.703 0 -23 -10.297 -23 -23 0 -12.703 10.297 -23 23 -23 z" style="fill:url(#linearGradient3764);fill-opacity:1"/>
    </g>
    <g transform="translate(1,1)">
        <path style="stroke:none;fill-rule:nonzero;fill:#000;fill-opacity:0.1;" d="M 33.359375 15.960938 L 14.640625 15.960938 C 13.636719 15.960938 12.851562 16.824219 12.945312 17.824219 L 13.652344 25.449219 L 34.347656 25.449219 L 35.054688 17.824219 C 35.148438 16.824219 34.363281 15.960938 33.359375 15.960938 Z M 33.359375 15.960938 "/>
        <path style="stroke:none;fill-rule:nonzero;fill:#000;fill-opacity:0.1;" d="M 13.652344 25.449219 L 12.9375 33.480469 C 12.847656 34.476562 13.632812 35.335938 14.636719 35.335938 L 33.363281 35.335938 C 34.367188 35.335938 35.152344 34.476562 35.0625 33.480469 L 34.347656 25.449219 Z M 13.652344 25.449219 "/>
    </g>
    <g>
        <path style="stroke:none;fill-rule:nonzero;fill:rgb(81.960784%,81.960784%,81.960784%);fill-opacity:1;" d="M 32.410156 23.636719 L 15.390625 23.636719 C 14.40625 23.636719 13.605469 22.839844 13.605469 21.851562 L 13.605469 14.449219 C 13.605469 13.460938 14.40625 12.664062 15.390625 12.664062 L 32.410156 12.664062 C 33.394531 12.664062 34.195312 13.460938 34.195312 14.449219 L 34.195312 21.851562 C 34.195312 22.839844 33.394531 23.636719 32.410156 23.636719 Z M 32.410156 23.636719 "/>
        <path style="stroke:none;fill-rule:nonzero;fill:rgb(100%,100%,100%);fill-opacity:1;" d="M 19.925781 14.242188 C 19.925781 14.707031 19.546875 15.085938 19.082031 15.085938 C 18.617188 15.085938 18.238281 14.707031 18.238281 14.242188 C 18.238281 13.777344 18.617188 13.398438 19.082031 13.398438 C 19.546875 13.398438 19.925781 13.777344 19.925781 14.242188 Z M 19.925781 14.242188 "/>
        <path style="stroke:none;fill-rule:nonzero;fill:rgb(100%,100%,100%);fill-opacity:1;" d="M 29.6875 14.242188 C 29.6875 14.707031 29.308594 15.085938 28.84375 15.085938 C 28.378906 15.085938 28 14.707031 28 14.242188 C 28 13.777344 28.378906 13.398438 28.84375 13.398438 C 29.308594 13.398438 29.6875 13.777344 29.6875 14.242188 Z M 29.6875 14.242188 "/>
        <path style="stroke:none;fill-rule:nonzero;fill:rgb(25.490196%,51.372549%,94.901961%);fill-opacity:1;" d="M 35.0625 33.480469 L 34.347656 25.449219 L 35.054688 17.824219 C 35.148438 16.824219 34.363281 15.960938 33.359375 15.960938 L 14.640625 15.960938 C 13.636719 15.960938 12.851562 16.824219 12.945312 17.824219 L 13.652344 25.449219 L 12.9375 33.480469 C 12.847656 34.476562 13.632812 35.335938 14.636719 35.335938 L 33.363281 35.335938 C 34.367188 35.335938 35.152344 34.476562 35.0625 33.480469 Z M 35.0625 33.480469 "/>
        <path style="stroke:none;fill-rule:nonzero;fill:rgb(18.039216%,36.862745%,80%);fill-opacity:1;" d="M 33.359375 15.960938 L 14.640625 15.960938 C 13.636719 15.960938 12.851562 16.824219 12.945312 17.824219 L 13.652344 25.449219 L 34.347656 25.449219 L 35.054688 17.824219 C 35.148438 16.824219 34.363281 15.960938 33.359375 15.960938 Z M 33.359375 15.960938 "/>
        <path style="stroke:none;fill-rule:nonzero;fill:rgb(25.490196%,51.372549%,94.901961%);fill-opacity:1;" d="M 13.652344 25.449219 L 12.9375 33.480469 C 12.847656 34.476562 13.632812 35.335938 14.636719 35.335938 L 33.363281 35.335938 C 34.367188 35.335938 35.152344 34.476562 35.0625 33.480469 L 34.347656 25.449219 Z M 13.652344 25.449219 "/>
        <path style="stroke:none;fill-rule:nonzero;fill:rgb(100%,100%,100%);fill-opacity:1;" d="M 25.394531 23.105469 L 27.78125 22.222656 L 27.78125 30.480469 L 29.046875 30.480469 L 29.046875 20.675781 L 25.394531 22.003906 Z M 25.394531 23.105469 "/>
        <path style="stroke:none;fill-rule:nonzero;fill:rgb(100%,100%,100%);fill-opacity:1;" d="M 19.007812 23.363281 L 17.929688 23.363281 C 17.929688 23.363281 17.808594 20.746094 20.9375 20.746094 C 21.675781 20.746094 23.53125 20.847656 23.613281 23.160156 C 23.640625 23.875 23.53125 24.785156 22.183594 25.480469 C 22.183594 25.480469 23.742188 25.785156 23.742188 27.921875 C 23.742188 30.058594 21.703125 30.550781 20.570312 30.480469 C 19.441406 30.414062 17.890625 29.683594 17.890625 27.867188 L 18.851562 27.867188 C 18.851562 27.867188 18.984375 29.617188 20.796875 29.527344 C 22.390625 29.449219 22.585938 28.152344 22.585938 27.839844 C 22.585938 27.527344 22.585938 26.039062 20.652344 25.957031 L 19.734375 25.957031 L 19.734375 25.09375 L 20.625 25.09375 C 20.625 25.09375 22.527344 24.796875 22.457031 23.324219 C 22.394531 21.960938 21.285156 21.683594 20.746094 21.683594 C 20.210938 21.683594 19.007812 21.96875 19.007812 23.363281 Z M 19.007812 23.363281 "/>
        <path style="stroke:none;fill-rule:nonzero;fill:rgb(75.294118%,76.470588%,84.313725%);fill-opacity:1;" d="M 29.046875 20.675781 L 25.394531 22.003906 L 25.394531 23.105469 L 27.78125 22.222656 L 27.78125 25.507812 L 29.046875 25.507812 Z M 29.046875 20.675781 "/>
        <path style="stroke:none;fill-rule:nonzero;fill:rgb(75.294118%,76.470588%,84.313725%);fill-opacity:1;" d="M 22.183594 25.480469 C 23.53125 24.785156 23.640625 23.875 23.613281 23.160156 C 23.53125 20.847656 21.675781 20.746094 20.9375 20.746094 C 17.808594 20.746094 17.929688 23.363281 17.929688 23.363281 L 19.007812 23.363281 C 19.007812 21.964844 20.210938 21.683594 20.746094 21.683594 C 21.285156 21.683594 22.394531 21.960938 22.457031 23.324219 C 22.527344 24.796875 20.625 25.09375 20.625 25.09375 L 19.734375 25.09375 L 19.734375 25.507812 L 22.285156 25.507812 C 22.222656 25.488281 22.183594 25.480469 22.183594 25.480469 Z M 22.183594 25.480469 "/>
    </g>
    <g>
        <path d="m 40.03 7.531 c 3.712 4.084 5.969 9.514 5.969 15.469 0 12.703 -10.297 23 -23 23 c -5.954 0 -11.384 -2.256 -15.469 -5.969 4.178 4.291 10.01 6.969 16.469 6.969 c 12.703 0 23 -10.298 23 -23 0 -6.462 -2.677 -12.291 -6.969 -16.469 z" style="opacity:0.1"/>
    </g>
</svg>


