<svg xmlns="http://www.w3.org/2000/svg" viewBox="0 0 48 48">
<defs>
  <linearGradient id="linearGradient3764" x1="1" x2="47" gradientUnits="userSpaceOnUse" gradientTransform="matrix(0,-1,1,0,-1.5e-6,47.999998)">
   <stop style="stop-color:#253858;stop-opacity:1"/>
   <stop offset="1" style="stop-color:#344563;stop-opacity:1"/>
  </linearGradient>
 </defs>
 <g>
  <path d="m 36.31 5 c 5.859 4.062 9.688 10.831 9.688 18.5 c 0 12.426 -10.07 22.5 -22.5 22.5 c -7.669 0 -14.438 -3.828 -18.5 -9.688 c 1.037 1.822 2.306 3.499 3.781 4.969 c 4.085 3.712 9.514 5.969 15.469 5.969 c 12.703 0 23 -10.298 23 -23 c 0 -5.954 -2.256 -11.384 -5.969 -15.469 c -1.469 -1.475 -3.147 -2.744 -4.969 -3.781 z m 4.969 3.781 c 3.854 4.113 6.219 9.637 6.219 15.719 c 0 12.703 -10.297 23 -23 23 c -6.081 0 -11.606 -2.364 -15.719 -6.219 c 4.16 4.144 9.883 6.719 16.219 6.719 c 12.703 0 23 -10.298 23 -23 c 0 -6.335 -2.575 -12.06 -6.719 -16.219 z" style="opacity:0.05"/>
  <path d="m 41.28 8.781 c 3.712 4.085 5.969 9.514 5.969 15.469 c 0 12.703 -10.297 23 -23 23 c -5.954 0 -11.384 -2.256 -15.469 -5.969 c 4.113 3.854 9.637 6.219 15.719 6.219 c 12.703 0 23 -10.298 23 -23 c 0 -6.081 -2.364 -11.606 -6.219 -15.719 z" style="opacity:0.1"/>
  <path d="m 31.25 2.375 c 8.615 3.154 14.75 11.417 14.75 21.13 c 0 12.426 -10.07 22.5 -22.5 22.5 c -9.708 0 -17.971 -6.135 -21.12 -14.75 a 23 23 0 0 0 44.875 -7 a 23 23 0 0 0 -16 -21.875 z" style="opacity:0.2"/>
 </g>
 <path fill-rule="evenodd" clip-rule="evenodd" d="m 24 1 c 12.703 0 23 10.297 23 23 c 0 12.703 -10.297 23 -23 23 -12.703 0 -23 -10.297 -23 -23 0 -12.703 10.297 -23 23 -23Z" style="fill:url(#linearGradient3764);fill-opacity:1"/>

 <g transform="translate(1,1)">
    <path fill-rule="evenodd" clip-rule="evenodd" d="M12.8682 29.5624C12.7799 29.7064 12.6877 29.8586 12.5949 30.0118C12.4276 30.2883 12.2583 30.5679 12.1063 30.8081C11.8949 31.1653 12.0084 31.6261 12.3615 31.8443L17.3139 34.8919C17.4878 34.9992 17.6974 35.0322 17.8958 34.9835C18.0943 34.9348 18.2648 34.8085 18.3692 34.6328L18.5535 34.3238C18.716 34.0512 18.9025 33.7383 19.1006 33.41C21.0625 30.1719 23.0358 30.5681 26.5939 32.2671L31.5044 34.6024C31.6904 34.6909 31.9043 34.7003 32.0973 34.6286C32.2904 34.5568 32.4462 34.4099 32.5292 34.2214L34.8873 28.8881C35.0539 28.5072 34.8843 28.063 34.5063 27.89C33.4701 27.4024 31.4092 26.4309 29.5539 25.5357C22.8796 22.2938 17.2073 22.5033 12.8682 29.5624ZM35.3472 17.01C35.2545 17.1632 35.1623 17.3155 35.0739 17.4595C30.7349 24.5109 25.0625 24.7281 18.373 21.49C16.5177 20.5947 14.4568 19.6233 13.4206 19.1357C13.0426 18.9627 12.873 18.5185 13.0396 18.1376L15.3977 12.8043C15.4807 12.6158 15.6365 12.4689 15.8296 12.3971C16.0226 12.3253 16.2365 12.3348 16.4225 12.4233L21.3177 14.7471C24.8758 16.4462 26.8492 16.8424 28.8111 13.6043C29.0092 13.2759 29.1957 12.963 29.3582 12.6904C29.4238 12.5803 29.4855 12.4767 29.5425 12.3814C29.648 12.1983 29.8248 12.0673 30.0307 12.0196C30.2366 11.972 30.453 12.0119 30.6282 12.13L35.5806 15.1776C35.9338 15.3958 36.0472 15.8565 35.8358 16.2138C35.6839 16.454 35.5146 16.7335 35.3472 17.01Z" style="fill:#000;fill-opacity:0.1"/>
</g>
 <g>
<path fill-rule="evenodd" clip-rule="evenodd" d="M12.8682 29.5624C12.7799 29.7064 12.6877 29.8586 12.5949 30.0118C12.4276 30.2883 12.2583 30.5679 12.1063 30.8081C11.8949 31.1653 12.0084 31.6261 12.3615 31.8443L17.3139 34.8919C17.4878 34.9992 17.6974 35.0322 17.8958 34.9835C18.0943 34.9348 18.2648 34.8085 18.3692 34.6328L18.5535 34.3238C18.716 34.0512 18.9025 33.7383 19.1006 33.41C21.0625 30.1719 23.0358 30.5681 26.5939 32.2671L31.5044 34.6024C31.6904 34.6909 31.9043 34.7003 32.0973 34.6286C32.2904 34.5568 32.4462 34.4099 32.5292 34.2214L34.8873 28.8881C35.0539 28.5072 34.8843 28.063 34.5063 27.89C33.4701 27.4024 31.4092 26.4309 29.5539 25.5357C22.8796 22.2938 17.2073 22.5033 12.8682 29.5624ZM35.3472 17.01C35.2545 17.1632 35.1623 17.3155 35.0739 17.4595C30.7349 24.5109 25.0625 24.7281 18.373 21.49C16.5177 20.5947 14.4568 19.6233 13.4206 19.1357C13.0426 18.9627 12.873 18.5185 13.0396 18.1376L15.3977 12.8043C15.4807 12.6158 15.6365 12.4689 15.8296 12.3971C16.0226 12.3253 16.2365 12.3348 16.4225 12.4233L21.3177 14.7471C24.8758 16.4462 26.8492 16.8424 28.8111 13.6043C29.0092 13.2759 29.1957 12.963 29.3582 12.6904C29.4238 12.5803 29.4855 12.4767 29.5425 12.3814C29.648 12.1983 29.8248 12.0673 30.0307 12.0196C30.2366 11.972 30.453 12.0119 30.6282 12.13L35.5806 15.1776C35.9338 15.3958 36.0472 15.8565 35.8358 16.2138C35.6839 16.454 35.5146 16.7335 35.3472 17.01Z" style="fill:#f9f9f9;fill-opacity:1"/>
<path d="m 40.03 7.531 c 3.712 4.084 5.969 9.514 5.969 15.469 0 12.703 -10.297 23 -23 23 c -5.954 0 -11.384 -2.256 -15.469 -5.969 4.178 4.291 10.01 6.969 16.469 6.969 c 12.703 0 23 -10.298 23 -23 0 -6.462 -2.677 -12.291 -6.969 -16.469 z" style="opacity:0.3"/>
</g>
</svg>
