<svg xmlns="http://www.w3.org/2000/svg" xmlns:xlink="http://www.w3.org/1999/xlink" viewBox="0 0 48 48">
<defs>
<filter id="alpha" filterUnits="objectBoundingBox" x="0%" y="0%" width="100%" height="100%">
  <feColorMatrix type="matrix" in="SourceGraphic" values="0 0 0 0 1 0 0 0 0 1 0 0 0 0 1 0 0 0 1 0"/>
</filter>

<path id="image7" style=" stroke:none;fill-rule:nonzero;fill:rgb(96.078431%,96.078431%,96.078431%);fill-opacity:1;" d="m 24 1 c 12.703 0 23 10.297 23 23 c 0 12.703 -10.297 23 -23 23 -12.703 0 -23 -10.297 -23 -23 0 -12.703 10.297 -23 23 -23Z"/>
<mask id="mask0">
  <g filter="url(#alpha)">
    <use xlink:href="#image7"/>
  </g>
</mask>
<linearGradient id="linear0" gradientUnits="userSpaceOnUse" x1="125.42" y1="122.05" x2="244.97" y2="122.05" gradientTransform="matrix(0.24,0,0,0.24,0,0)">
<stop offset="0" style="stop-color:rgb(0%,0%,0%);stop-opacity:0.2;"/>
<stop offset="1" style="stop-color:rgb(0%,0%,0%);stop-opacity:0;"/>
</linearGradient>
<clipPath id="clip1">
  <rect x="0" y="0" width="48" height="48"/>
</clipPath>
<g id="surface6" clip-path="url(#clip1)">
<rect x="0" y="0" width="48" height="48" style="fill:rgb(89.803922%,22.352941%,20.784314%);fill-opacity:1;stroke:none;"/>
<path style=" stroke:none;fill-rule:nonzero;fill:rgb(96.078431%,96.078431%,96.078431%);fill-opacity:1;" d="M 31.117188 30.515625 L 30.109375 30 C 29.652344 30.296875 29.1875 30.554688 28.714844 30.78125 C 27.355469 31.410156 25.875 31.757812 24.277344 31.8125 L 24 31.8125 L 24 32.328125 L 24.085938 32.328125 C 24.152344 32.328125 24.214844 32.332031 24.277344 32.339844 C 24.78125 32.386719 25.21875 32.601562 25.597656 32.976562 C 25.621094 33.007812 25.648438 33.035156 25.679688 33.058594 L 31.007812 30.550781 C 31.046875 30.535156 31.085938 30.523438 31.117188 30.515625 M 25.667969 36.070312 C 25.636719 36.089844 25.613281 36.109375 25.597656 36.132812 C 25.21875 36.5 24.78125 36.707031 24.277344 36.757812 C 24.234375 36.757812 24.195312 36.765625 24.15625 36.78125 L 24 36.78125 L 24 47.878906 L 28.558594 37.441406 Z M 25.667969 36.070312 "/>
<path style=" stroke:none;fill-rule:nonzero;fill:rgb(77.647059%,15.686275%,15.686275%);fill-opacity:1;" d="M 33.324219 31.632812 C 33.117188 31.160156 32.839844 30.832031 32.496094 30.648438 C 32.121094 30.433594 31.660156 30.386719 31.117188 30.515625 C 31.085938 30.523438 31.046875 30.535156 31.007812 30.550781 L 25.679688 33.058594 C 25.648438 33.035156 25.621094 33.007812 25.597656 32.976562 C 25.21875 32.601562 24.78125 32.386719 24.277344 32.339844 C 24.214844 32.332031 24.152344 32.328125 24.085938 32.328125 C 24.109375 32.328125 24.136719 32.332031 24.15625 32.339844 L 24.15625 36.78125 C 24.195312 36.765625 24.234375 36.757812 24.277344 36.757812 C 24.78125 36.707031 25.21875 36.5 25.597656 36.132812 C 25.613281 36.109375 25.636719 36.089844 25.667969 36.070312 L 28.558594 37.441406 L 31.007812 38.59375 C 32.296875 38.902344 33.097656 38.472656 33.40625 37.296875 L 33.40625 31.847656 C 33.375 31.777344 33.347656 31.703125 33.324219 31.632812 Z M 33.324219 31.632812 "/>
<path style=" stroke:none;fill-rule:nonzero;fill:rgb(100%,85.490196%,64.313725%);fill-opacity:1;" d="M 29.039062 5.773438 C 27.59375 5.035156 26.003906 4.640625 24.277344 4.585938 C 24.179688 4.574219 24.089844 4.570312 24 4.570312 L 24 31.8125 L 24.277344 31.8125 C 25.875 31.757812 27.355469 31.410156 28.714844 30.78125 C 29.1875 30.554688 29.652344 30.296875 30.109375 30 C 30.765625 29.566406 31.386719 29.058594 31.980469 28.476562 C 34.074219 26.386719 35.191406 23.902344 35.328125 21.023438 L 35.328125 15.335938 C 35.328125 15.273438 35.324219 15.210938 35.316406 15.15625 C 35.308594 14.972656 35.292969 14.792969 35.269531 14.617188 C 33.621094 14.441406 32.1875 13.746094 30.972656 12.539062 C 29.554688 11.140625 28.847656 9.441406 28.847656 7.441406 C 28.847656 6.855469 28.910156 6.300781 29.039062 5.773438 M 27.589844 16.835938 C 27.589844 16.234375 27.707031 15.71875 27.949219 15.289062 C 28.210938 14.871094 28.519531 14.664062 28.871094 14.664062 C 29.230469 14.664062 29.535156 14.871094 29.785156 15.289062 C 30.039062 15.71875 30.167969 16.234375 30.167969 16.835938 C 30.167969 17.4375 30.039062 17.949219 29.785156 18.371094 C 29.535156 18.804688 29.230469 19.019531 28.871094 19.019531 C 28.519531 19.019531 28.210938 18.804688 27.949219 18.371094 C 27.707031 17.949219 27.589844 17.4375 27.589844 16.835938 M 24.71875 26.820312 L 24.71875 24.839844 L 30.949219 22.222656 C 30.605469 23.175781 30.039062 24.03125 29.257812 24.792969 C 28.023438 26.015625 26.570312 26.691406 24.898438 26.820312 Z M 24.71875 26.820312 "/>
<path style=" stroke:none;fill-rule:nonzero;fill:rgb(12.941176%,12.941176%,12.941176%);fill-opacity:1;" d="M 24.71875 24.839844 L 24.71875 26.820312 L 24.898438 26.820312 C 26.570312 26.691406 28.023438 26.015625 29.257812 24.792969 C 30.039062 24.03125 30.605469 23.175781 30.949219 22.222656 L 24.71875 24.839844 M 27.949219 15.289062 C 27.707031 15.71875 27.589844 16.234375 27.589844 16.835938 C 27.589844 17.4375 27.707031 17.949219 27.949219 18.371094 C 28.210938 18.804688 28.519531 19.019531 28.871094 19.019531 C 29.230469 19.019531 29.535156 18.804688 29.785156 18.371094 C 30.039062 17.949219 30.167969 17.4375 30.167969 16.835938 C 30.167969 16.234375 30.039062 15.71875 29.785156 15.289062 C 29.535156 14.871094 29.230469 14.664062 28.871094 14.664062 C 28.519531 14.664062 28.210938 14.871094 27.949219 15.289062 M 23.292969 26.820312 L 23.292969 24.839844 L 17.050781 22.222656 C 17.402344 23.175781 17.96875 24.03125 18.742188 24.792969 C 19.984375 26.015625 21.441406 26.691406 23.113281 26.820312 L 23.292969 26.820312 M 20.050781 18.371094 C 20.300781 17.949219 20.425781 17.4375 20.425781 16.835938 C 20.425781 16.234375 20.300781 15.71875 20.050781 15.289062 C 19.796875 14.871094 19.492188 14.664062 19.140625 14.664062 C 18.78125 14.664062 18.476562 14.871094 18.226562 15.289062 C 17.972656 15.71875 17.84375 16.234375 17.84375 16.835938 C 17.84375 17.4375 17.972656 17.949219 18.226562 18.371094 C 18.476562 18.804688 18.78125 19.019531 19.140625 19.019531 C 19.492188 19.019531 19.796875 18.804688 20.050781 18.371094 Z M 20.050781 18.371094 "/>
<path style=" stroke:none;fill-rule:nonzero;fill:rgb(14.901961%,19.607843%,21.960784%);fill-opacity:1;" d="M 32.628906 8.617188 C 32.46875 8.429688 32.300781 8.246094 32.125 8.0625 L 31.980469 7.921875 C 31.066406 7.015625 30.089844 6.300781 29.039062 5.773438 C 28.910156 6.300781 28.847656 6.855469 28.847656 7.441406 C 28.847656 9.441406 29.554688 11.140625 30.972656 12.539062 C 32.1875 13.746094 33.621094 14.441406 35.269531 14.617188 C 35.023438 12.355469 34.140625 10.355469 32.628906 8.617188 M 42.683594 38.628906 L 42.671875 38.59375 C 42.046875 36.84375 41.164062 35.660156 40.019531 35.039062 L 33.324219 31.632812 C 33.347656 31.703125 33.375 31.777344 33.40625 31.847656 L 33.40625 37.296875 C 33.097656 38.472656 32.296875 38.902344 31.007812 38.59375 L 28.558594 37.441406 L 24 47.878906 L 24 49.992188 L 45.910156 49.96875 Z M 42.683594 38.628906 "/>
<path style=" stroke:none;fill-rule:nonzero;fill:url(#linear0);" d="M 42.671875 38.59375 L 42.683594 38.628906 L 45.910156 49.96875 L 58.800781 49.96875 L 58.800781 36.996094 L 32.628906 8.617188 C 34.140625 10.355469 35.023438 12.355469 35.269531 14.617188 C 35.292969 14.792969 35.308594 14.972656 35.316406 15.15625 C 35.324219 15.210938 35.328125 15.273438 35.328125 15.335938 L 35.328125 21.023438 C 35.191406 23.902344 34.074219 26.386719 31.980469 28.476562 C 31.386719 29.058594 30.765625 29.566406 30.109375 30 L 31.117188 30.515625 C 31.660156 30.386719 32.121094 30.433594 32.496094 30.648438 C 32.839844 30.832031 33.117188 31.160156 33.324219 31.632812 L 40.019531 35.039062 C 41.164062 35.660156 42.050781 36.84375 42.671875 38.59375 Z M 42.671875 38.59375 "/>
<path style=" stroke:none;fill-rule:nonzero;fill:rgb(21.568627%,27.843137%,30.980392%);fill-opacity:1;" d="M 14.605469 31.847656 C 14.636719 31.777344 14.660156 31.703125 14.675781 31.632812 L 7.980469 35.039062 C 6.832031 35.660156 5.949219 36.859375 5.328125 38.640625 C 5.332031 38.648438 5.332031 38.65625 5.328125 38.664062 L 2.101562 50.015625 L 24 49.992188 L 24 47.878906 L 19.453125 37.441406 L 16.992188 38.59375 C 15.710938 38.902344 14.914062 38.472656 14.605469 37.296875 Z M 14.605469 31.847656 "/>
<path style=" stroke:none;fill-rule:nonzero;fill:rgb(98.039216%,98.039216%,98.039216%);fill-opacity:1;" d="M 17.902344 30 L 16.894531 30.515625 L 16.992188 30.550781 L 22.332031 33.058594 L 22.414062 32.976562 C 22.792969 32.601562 23.230469 32.386719 23.734375 32.339844 C 23.816406 32.332031 23.898438 32.328125 23.988281 32.328125 L 24 32.328125 L 24 31.8125 L 23.734375 31.8125 C 22.136719 31.757812 20.65625 31.410156 19.296875 30.78125 C 18.824219 30.554688 18.359375 30.296875 17.902344 30 M 23.976562 36.78125 L 23.855469 36.78125 C 23.816406 36.765625 23.777344 36.757812 23.734375 36.757812 C 23.230469 36.707031 22.792969 36.5 22.414062 36.132812 C 22.390625 36.109375 22.367188 36.089844 22.34375 36.070312 L 19.453125 37.441406 L 24 47.878906 L 24 36.78125 Z M 23.976562 36.78125 "/>
<path style=" stroke:none;fill-rule:nonzero;fill:rgb(100%,87.843137%,69.803922%);fill-opacity:1;" d="M 24 4.570312 C 23.910156 4.570312 23.824219 4.574219 23.734375 4.585938 C 22.007812 4.640625 20.421875 5.035156 18.972656 5.773438 C 19.101562 6.300781 19.164062 6.855469 19.164062 7.441406 C 19.164062 9.441406 18.457031 11.140625 17.039062 12.539062 C 15.824219 13.746094 14.386719 14.441406 12.730469 14.617188 C 12.714844 14.792969 12.703125 14.972656 12.695312 15.15625 C 12.679688 15.210938 12.671875 15.273438 12.671875 15.335938 L 12.671875 21.023438 C 12.816406 23.902344 13.9375 26.386719 16.03125 28.476562 C 16.625 29.058594 17.246094 29.566406 17.902344 30 C 18.359375 30.296875 18.824219 30.554688 19.296875 30.78125 C 20.65625 31.410156 22.136719 31.757812 23.734375 31.8125 L 24 31.8125 L 24 4.570312 M 20.425781 16.835938 C 20.425781 17.4375 20.300781 17.949219 20.050781 18.371094 C 19.796875 18.804688 19.492188 19.019531 19.140625 19.019531 C 18.78125 19.019531 18.476562 18.804688 18.226562 18.371094 C 17.972656 17.949219 17.84375 17.4375 17.84375 16.835938 C 17.84375 16.234375 17.972656 15.71875 18.226562 15.289062 C 18.476562 14.871094 18.78125 14.664062 19.140625 14.664062 C 19.492188 14.664062 19.796875 14.871094 20.050781 15.289062 C 20.300781 15.71875 20.425781 16.234375 20.425781 16.835938 M 23.292969 24.839844 L 23.292969 26.820312 L 23.113281 26.820312 C 21.441406 26.691406 19.984375 26.015625 18.742188 24.792969 C 17.96875 24.03125 17.402344 23.175781 17.050781 22.222656 Z M 23.292969 24.839844 "/>
<path style=" stroke:none;fill-rule:nonzero;fill:rgb(82.745098%,18.431373%,18.431373%);fill-opacity:1;" d="M 16.992188 30.550781 L 16.894531 30.515625 C 16.351562 30.386719 15.890625 30.433594 15.515625 30.648438 C 15.164062 30.832031 14.882812 31.160156 14.675781 31.632812 C 14.660156 31.703125 14.636719 31.777344 14.605469 31.847656 L 14.605469 37.296875 C 14.914062 38.472656 15.710938 38.902344 16.992188 38.59375 L 19.453125 37.441406 L 22.34375 36.070312 C 22.367188 36.089844 22.390625 36.109375 22.414062 36.132812 C 22.792969 36.5 23.230469 36.707031 23.734375 36.757812 C 23.777344 36.757812 23.816406 36.765625 23.855469 36.78125 L 24.15625 36.78125 L 24.15625 32.339844 C 24.136719 32.332031 24.109375 32.328125 24.085938 32.328125 L 23.988281 32.328125 C 23.898438 32.328125 23.816406 32.332031 23.734375 32.339844 C 23.230469 32.386719 22.792969 32.601562 22.414062 32.976562 L 22.332031 33.058594 Z M 16.992188 30.550781 "/>
<path style=" stroke:none;fill-rule:nonzero;fill:rgb(21.176471%,27.843137%,30.980392%);fill-opacity:1;" d="M 18.972656 5.773438 C 17.925781 6.300781 16.945312 7.015625 16.03125 7.921875 C 14.121094 9.816406 13.019531 12.046875 12.730469 14.617188 C 14.386719 14.441406 15.824219 13.746094 17.039062 12.539062 C 18.457031 11.140625 19.164062 9.441406 19.164062 7.441406 C 19.164062 6.855469 19.101562 6.300781 18.972656 5.773438 Z M 18.972656 5.773438 "/>
<path d="m 40.03 7.531 c 3.712 4.084 5.969 9.514 5.969 15.469 0 12.703 -10.297 23 -23 23 c -5.954 0 -11.384 -2.256 -15.469 -5.969 4.178 4.291 10.01 6.969 16.469 6.969 c 12.703 0 23 -10.298 23 -23 0 -6.462 -2.677 -12.291 -6.969 -16.469 z" style="opacity:0.3"/>
</g>
</defs>
<g id="surface1">
<use xlink:href="#surface6" mask="url(#mask0)"/>
</g>
<g>
  <path d="m 36.31 5 c 5.859 4.062 9.688 10.831 9.688 18.5 c 0 12.426 -10.07 22.5 -22.5 22.5 c -7.669 0 -14.438 -3.828 -18.5 -9.688 c 1.037 1.822 2.306 3.499 3.781 4.969 c 4.085 3.712 9.514 5.969 15.469 5.969 c 12.703 0 23 -10.298 23 -23 c 0 -5.954 -2.256 -11.384 -5.969 -15.469 c -1.469 -1.475 -3.147 -2.744 -4.969 -3.781 z m 4.969 3.781 c 3.854 4.113 6.219 9.637 6.219 15.719 c 0 12.703 -10.297 23 -23 23 c -6.081 0 -11.606 -2.364 -15.719 -6.219 c 4.16 4.144 9.883 6.719 16.219 6.719 c 12.703 0 23 -10.298 23 -23 c 0 -6.335 -2.575 -12.06 -6.719 -16.219 z" style="opacity:0.05"/>
  <path d="m 41.28 8.781 c 3.712 4.085 5.969 9.514 5.969 15.469 c 0 12.703 -10.297 23 -23 23 c -5.954 0 -11.384 -2.256 -15.469 -5.969 c 4.113 3.854 9.637 6.219 15.719 6.219 c 12.703 0 23 -10.298 23 -23 c 0 -6.081 -2.364 -11.606 -6.219 -15.719 z" style="opacity:0.1"/>
  <path d="m 31.25 2.375 c 8.615 3.154 14.75 11.417 14.75 21.13 c 0 12.426 -10.07 22.5 -22.5 22.5 c -9.708 0 -17.971 -6.135 -21.12 -14.75 a 23 23 0 0 0 44.875 -7 a 23 23 0 0 0 -16 -21.875 z" style="opacity:0.2"/>
 </g>
</svg>
