<!--
<?xml version="1.0" encoding="UTF-8" standalone="no"?> <svg width="48" height="48" viewBox="0 0 48 48" fill="none" xmlns="http://www.w3.org/2000/svg">
<path fill-rule="evenodd" clip-rule="evenodd" d="M24 0C10.7452 0 0 10.7452 0 24C0 37.2548 10.7452 48 24 48C37.2548 48 48 37.2548 48 24C48 10.7452 37.2548 0 24 0ZM23.41 12H34.9367C35.489 12 35.9367 12.4477 35.9367 13V24.4533C33.0655 24.4515 30.7385 22.1245 30.7367 19.2533V17.2033H28.6133C27.2333 17.2033 25.9098 16.6551 24.934 15.6793C23.9582 14.7035 23.41 13.38 23.41 12ZM29.2333 17.7433H17.7067C17.7085 20.6145 20.0355 22.9415 22.9067 22.9433H25.03V25C25.0337 27.8711 27.3622 30.1967 30.2333 30.1967V18.7433C30.2333 18.191 29.7856 17.7433 29.2333 17.7433ZM12 23.4833H23.5267C24.079 23.4833 24.5267 23.931 24.5267 24.4833V35.9367C21.6582 35.9312 19.3352 33.6052 19.3333 30.7367V28.6867H17.2033C14.3296 28.6867 12 26.3571 12 23.4833Z" fill="black"/>
</svg>
-->
<svg xmlns="http://www.w3.org/2000/svg" viewBox="0 0 48 48">
<defs>
  <linearGradient id="linearGradient3764" x1="1" x2="47" gradientUnits="userSpaceOnUse" gradientTransform="matrix(0,-1,1,0,-1.5e-6,47.999998)">
   <stop style="stop-color:#505F79;stop-opacity:1"/>
   <stop offset="1" style="stop-color:#5E6C84;stop-opacity:1"/>
  </linearGradient>
 </defs>

<g>
  <path d="m 36.31 5 c 5.859 4.062 9.688 10.831 9.688 18.5 c 0 12.426 -10.07 22.5 -22.5 22.5 c -7.669 0 -14.438 -3.828 -18.5 -9.688 c 1.037 1.822 2.306 3.499 3.781 4.969 c 4.085 3.712 9.514 5.969 15.469 5.969 c 12.703 0 23 -10.298 23 -23 c 0 -5.954 -2.256 -11.384 -5.969 -15.469 c -1.469 -1.475 -3.147 -2.744 -4.969 -3.781 z m 4.969 3.781 c 3.854 4.113 6.219 9.637 6.219 15.719 c 0 12.703 -10.297 23 -23 23 c -6.081 0 -11.606 -2.364 -15.719 -6.219 c 4.16 4.144 9.883 6.719 16.219 6.719 c 12.703 0 23 -10.298 23 -23 c 0 -6.335 -2.575 -12.06 -6.719 -16.219 z" style="opacity:0.05"/>
  <path d="m 41.28 8.781 c 3.712 4.085 5.969 9.514 5.969 15.469 c 0 12.703 -10.297 23 -23 23 c -5.954 0 -11.384 -2.256 -15.469 -5.969 c 4.113 3.854 9.637 6.219 15.719 6.219 c 12.703 0 23 -10.298 23 -23 c 0 -6.081 -2.364 -11.606 -6.219 -15.719 z" style="opacity:0.1"/>
  <path d="m 31.25 2.375 c 8.615 3.154 14.75 11.417 14.75 21.13 c 0 12.426 -10.07 22.5 -22.5 22.5 c -9.708 0 -17.971 -6.135 -21.12 -14.75 a 23 23 0 0 0 44.875 -7 a 23 23 0 0 0 -16 -21.875 z" style="opacity:0.2"/>
 </g>

 <path fill-rule="evenodd" clip-rule="evenodd" d="m 24 1 c 12.703 0 23 10.297 23 23 c 0 12.703 -10.297 23 -23 23 -12.703 0 -23 -10.297 -23 -23 0 -12.703 10.297 -23 23 -23Z" style="fill:url(#linearGradient3764);fill-opacity:1"/>

 <g transform="translate(-1,3)">
    <path fill-rule="evenodd" clip-rule="evenodd" d="M23.41 12H34.9367C35.489 12 35.9367 12.4477 35.9367 13V24.4533C33.0655 24.4515 30.7385 22.1245 30.7367 19.2533V17.2033H28.6133C27.2333 17.2033 25.9098 16.6551 24.934 15.6793C23.9582 14.7035 23.41 13.38 23.41 12ZM29.2333 17.7433H17.7067C17.7085 20.6145 20.0355 22.9415 22.9067 22.9433H25.03V25C25.0337 27.8711 27.3622 30.1967 30.2333 30.1967V18.7433C30.2333 18.191 29.7856 17.7433 29.2333 17.7433ZM12 23.4833H23.5267C24.079 23.4833 24.5267 23.931 24.5267 24.4833V35.9367C21.6582 35.9312 19.3352 33.6052 19.3333 30.7367V28.6867H17.2033C14.3296 28.6867 12 26.3571 12 23.4833Z" style="fill:#000;fill-opacity:0.1"/>
</g>
 <g transform="translate(-2,2)">
<path fill-rule="evenodd" clip-rule="evenodd" d="M23.41 12H34.9367C35.489 12 35.9367 12.4477 35.9367 13V24.4533C33.0655 24.4515 30.7385 22.1245 30.7367 19.2533V17.2033H28.6133C27.2333 17.2033 25.9098 16.6551 24.934 15.6793C23.9582 14.7035 23.41 13.38 23.41 12ZM29.2333 17.7433H17.7067C17.7085 20.6145 20.0355 22.9415 22.9067 22.9433H25.03V25C25.0337 27.8711 27.3622 30.1967 30.2333 30.1967V18.7433C30.2333 18.191 29.7856 17.7433 29.2333 17.7433ZM12 23.4833H23.5267C24.079 23.4833 24.5267 23.931 24.5267 24.4833V35.9367C21.6582 35.9312 19.3352 33.6052 19.3333 30.7367V28.6867H17.2033C14.3296 28.6867 12 26.3571 12 23.4833Z" style="fill:#f9f9f9;fill-opacity:1"/>
</g>
<g>
<path d="m 40.03 7.531 c 3.712 4.084 5.969 9.514 5.969 15.469 0 12.703 -10.297 23 -23 23 c -5.954 0 -11.384 -2.256 -15.469 -5.969 4.178 4.291 10.01 6.969 16.469 6.969 c 12.703 0 23 -10.298 23 -23 0 -6.462 -2.677 -12.291 -6.969 -16.469 z" style="opacity:0.3"/>
</g>
</svg>
