<svg xmlns="http://www.w3.org/2000/svg" xmlns:xlink="http://www.w3.org/1999/xlink" viewBox="0 0 48 48" version="1.1">
<defs>
  <linearGradient id="linearGradient3764" x1="1" x2="47" gradientUnits="userSpaceOnUse" gradientTransform="matrix(0,-1,1,0,-1.5e-6,47.999998)">
   <stop style="stop-color:#0A1F4C;stop-opacity:1"/>
   <stop offset="1" style="stop-color:#091b44;stop-opacity:1"/>
  </linearGradient>
 </defs>
<g>
  <path d="m 36.31 5 c 5.859 4.062 9.688 10.831 9.688 18.5 c 0 12.426 -10.07 22.5 -22.5 22.5 c -7.669 0 -14.438 -3.828 -18.5 -9.688 c 1.037 1.822 2.306 3.499 3.781 4.969 c 4.085 3.712 9.514 5.969 15.469 5.969 c 12.703 0 23 -10.298 23 -23 c 0 -5.954 -2.256 -11.384 -5.969 -15.469 c -1.469 -1.475 -3.147 -2.744 -4.969 -3.781 z m 4.969 3.781 c 3.854 4.113 6.219 9.637 6.219 15.719 c 0 12.703 -10.297 23 -23 23 c -6.081 0 -11.606 -2.364 -15.719 -6.219 c 4.16 4.144 9.883 6.719 16.219 6.719 c 12.703 0 23 -10.298 23 -23 c 0 -6.335 -2.575 -12.06 -6.719 -16.219 z" style="opacity:0.05"/>
  <path d="m 41.28 8.781 c 3.712 4.085 5.969 9.514 5.969 15.469 c 0 12.703 -10.297 23 -23 23 c -5.954 0 -11.384 -2.256 -15.469 -5.969 c 4.113 3.854 9.637 6.219 15.719 6.219 c 12.703 0 23 -10.298 23 -23 c 0 -6.081 -2.364 -11.606 -6.219 -15.719 z" style="opacity:0.1"/>
  <path d="m 31.25 2.375 c 8.615 3.154 14.75 11.417 14.75 21.13 c 0 12.426 -10.07 22.5 -22.5 22.5 c -9.708 0 -17.971 -6.135 -21.12 -14.75 a 23 23 0 0 0 44.875 -7 a 23 23 0 0 0 -16 -21.875 z" style="opacity:0.2"/>
 </g>
 <path fill-rule="evenodd" clip-rule="evenodd" d="m 24 1 c 12.703 0 23 10.297 23 23 c 0 12.703 -10.297 23 -23 23 -12.703 0 -23 -10.297 -23 -23 0 -12.703 10.297 -23 23 -23Z" style="fill:url(#linearGradient3764);fill-opacity:1"/>
<g transform="translate(5.5,5.5)">
<path style=" stroke:none;fill-rule:nonzero;fill:#000;fill-opacity:0.3;" d="M 24.796875 19.929688 L 24.789062 19.011719 C 24.789062 19.011719 26.324219 17.613281 26.28125 17.511719 L 25.609375 16.101562 C 25.566406 16.003906 23.527344 16.066406 23.527344 16.066406 L 22.859375 15.410156 C 22.859375 15.410156 22.878906 13.398438 22.777344 13.351562 L 21.355469 12.703125 C 21.257812 12.660156 19.898438 14.1875 19.898438 14.1875 L 18.96875 14.175781 C 18.96875 14.175781 17.523438 12.660156 17.425781 12.703125 L 16.011719 13.289062 C 15.910156 13.324219 16.023438 15.332031 16.023438 15.332031 L 15.378906 15.972656 C 15.378906 15.972656 13.320312 15.910156 13.28125 16.003906 L 12.710938 17.402344 C 12.671875 17.5 14.195312 18.882812 14.195312 18.882812 L 14.203125 19.796875 C 14.203125 19.796875 12.671875 21.195312 12.710938 21.292969 L 13.382812 22.707031 C 13.425781 22.804688 15.464844 22.742188 15.464844 22.742188 L 16.128906 23.398438 C 16.128906 23.398438 16.117188 25.644531 16.214844 25.679688 L 17.632812 26.265625 C 17.734375 26.308594 19.097656 24.605469 19.097656 24.605469 L 20.023438 24.621094 C 20.023438 24.621094 21.472656 26.300781 21.5625 26.265625 L 22.976562 25.738281 C 23.074219 25.691406 22.960938 23.46875 22.960938 23.46875 L 23.605469 22.828125 C 23.605469 22.828125 25.667969 22.890625 25.703125 22.792969 L 26.273438 21.390625 C 26.324219 21.316406 24.796875 19.929688 24.796875 19.929688 Z M 21.625 19.316406 C 21.675781 20.523438 20.722656 21.546875 19.5 21.605469 C 18.277344 21.660156 17.234375 20.722656 17.183594 19.511719 C 17.132812 18.304688 18.085938 17.28125 19.308594 17.230469 C 20.53125 17.171875 21.574219 18.113281 21.625 19.316406 Z M 35.839844 16.636719 L 28.988281 9.785156 L 28.980469 9.792969 C 23.671875 4.613281 15.175781 4.648438 9.921875 9.90625 C 6.324219 13.507812 7.957031 11.875 3.160156 16.636719 C 1.585938 18.214844 1.585938 20.785156 3.160156 22.359375 C 8.101562 27.261719 6.441406 25.609375 10.042969 29.210938 L 10.046875 29.207031 C 15.355469 34.382812 23.851562 34.351562 29.105469 29.089844 C 32.710938 25.496094 31.078125 27.121094 35.839844 22.359375 C 37.414062 20.785156 37.414062 18.214844 35.839844 16.636719 Z M 11.898438 27.113281 C 7.691406 22.910156 7.691406 16.09375 11.898438 11.890625 C 16.105469 7.679688 22.917969 7.6875 27.128906 11.890625 C 31.332031 16.09375 31.339844 22.910156 27.128906 27.121094 C 22.917969 31.324219 16.109375 31.316406 11.898438 27.113281 Z M 11.898438 27.113281 "/>
</g>
<g transform="translate(4.5,4.5)">
<path style=" stroke:none;fill-rule:nonzero;fill:#CCC;fill-opacity:1;" d="M 24.796875 19.929688 L 24.789062 19.011719 C 24.789062 19.011719 26.324219 17.613281 26.28125 17.511719 L 25.609375 16.101562 C 25.566406 16.003906 23.527344 16.066406 23.527344 16.066406 L 22.859375 15.410156 C 22.859375 15.410156 22.878906 13.398438 22.777344 13.351562 L 21.355469 12.703125 C 21.257812 12.660156 19.898438 14.1875 19.898438 14.1875 L 18.96875 14.175781 C 18.96875 14.175781 17.523438 12.660156 17.425781 12.703125 L 16.011719 13.289062 C 15.910156 13.324219 16.023438 15.332031 16.023438 15.332031 L 15.378906 15.972656 C 15.378906 15.972656 13.320312 15.910156 13.28125 16.003906 L 12.710938 17.402344 C 12.671875 17.5 14.195312 18.882812 14.195312 18.882812 L 14.203125 19.796875 C 14.203125 19.796875 12.671875 21.195312 12.710938 21.292969 L 13.382812 22.707031 C 13.425781 22.804688 15.464844 22.742188 15.464844 22.742188 L 16.128906 23.398438 C 16.128906 23.398438 16.117188 25.644531 16.214844 25.679688 L 17.632812 26.265625 C 17.734375 26.308594 19.097656 24.605469 19.097656 24.605469 L 20.023438 24.621094 C 20.023438 24.621094 21.472656 26.300781 21.5625 26.265625 L 22.976562 25.738281 C 23.074219 25.691406 22.960938 23.46875 22.960938 23.46875 L 23.605469 22.828125 C 23.605469 22.828125 25.667969 22.890625 25.703125 22.792969 L 26.273438 21.390625 C 26.324219 21.316406 24.796875 19.929688 24.796875 19.929688 Z M 21.625 19.316406 C 21.675781 20.523438 20.722656 21.546875 19.5 21.605469 C 18.277344 21.660156 17.234375 20.722656 17.183594 19.511719 C 17.132812 18.304688 18.085938 17.28125 19.308594 17.230469 C 20.53125 17.171875 21.574219 18.113281 21.625 19.316406 Z M 35.839844 16.636719 L 28.988281 9.785156 L 28.980469 9.792969 C 23.671875 4.613281 15.175781 4.648438 9.921875 9.90625 C 6.324219 13.507812 7.957031 11.875 3.160156 16.636719 C 1.585938 18.214844 1.585938 20.785156 3.160156 22.359375 C 8.101562 27.261719 6.441406 25.609375 10.042969 29.210938 L 10.046875 29.207031 C 15.355469 34.382812 23.851562 34.351562 29.105469 29.089844 C 32.710938 25.496094 31.078125 27.121094 35.839844 22.359375 C 37.414062 20.785156 37.414062 18.214844 35.839844 16.636719 Z M 11.898438 27.113281 C 7.691406 22.910156 7.691406 16.09375 11.898438 11.890625 C 16.105469 7.679688 22.917969 7.6875 27.128906 11.890625 C 31.332031 16.09375 31.339844 22.910156 27.128906 27.121094 C 22.917969 31.324219 16.109375 31.316406 11.898438 27.113281 Z M 11.898438 27.113281 "/>
</g>
 <g>
<path d="m 40.03 7.531 c 3.712 4.084 5.969 9.514 5.969 15.469 0 12.703 -10.297 23 -23 23 c -5.954 0 -11.384 -2.256 -15.469 -5.969 4.178 4.291 10.01 6.969 16.469 6.969 c 12.703 0 23 -10.298 23 -23 0 -6.462 -2.677 -12.291 -6.969 -16.469 z" style="opacity:0.3"/>
</g>
</svg>
