<svg version="1.1" viewBox="0 0 48 48" xmlns="http://www.w3.org/2000/svg">
    <defs>
        <linearGradient id="linearGradient3764" x1="1" x2="47" gradientTransform="matrix(0 -1 1 0 -1.5e-6 48)" gradientUnits="userSpaceOnUse">
            <stop style="stop-color:#f74808" offset="0"/>
            <stop style="stop-color:#FF5700" offset="1"/>
        </linearGradient>
    </defs>
    <path d="m36.31 5c5.859 4.062 9.688 10.831 9.688 18.5 0 12.426-10.07 22.5-22.5 22.5-7.669 0-14.438-3.828-18.5-9.688 1.037 1.822 2.306 3.499 3.781 4.969 4.085 3.712 9.514 5.969 15.469 5.969 12.703 0 23-10.298 23-23 0-5.954-2.256-11.384-5.969-15.469-1.469-1.475-3.147-2.744-4.969-3.781zm4.969 3.781c3.854 4.113 6.219 9.637 6.219 15.719 0 12.703-10.297 23-23 23-6.081 0-11.606-2.364-15.719-6.219 4.16 4.144 9.883 6.719 16.219 6.719 12.703 0 23-10.298 23-23 0-6.335-2.575-12.06-6.719-16.219z" style="opacity:.05"/>
    <path d="m41.28 8.781c3.712 4.085 5.969 9.514 5.969 15.469 0 12.703-10.297 23-23 23-5.954 0-11.384-2.256-15.469-5.969 4.113 3.854 9.637 6.219 15.719 6.219 12.703 0 23-10.298 23-23 0-6.081-2.364-11.606-6.219-15.719z" style="opacity:.1"/>
    <path d="m31.25 2.375c8.615 3.154 14.75 11.417 14.75 21.13 0 12.426-10.07 22.5-22.5 22.5-9.708 0-17.971-6.135-21.12-14.75a23 23 0 0 0 44.875-7 23 23 0 0 0-16-21.875z" style="opacity:.2"/>
    <path d="m24 1c12.703 0 23 10.297 23 23s-10.297 23-23 23-23-10.297-23-23 10.297-23 23-23z" style="fill:url(#linearGradient3764)"/>
    <path d="m40.03 7.531c3.712 4.084 5.969 9.514 5.969 15.469 0 12.703-10.297 23-23 23-5.954 0-11.384-2.256-15.469-5.969 4.178 4.291 10.01 6.969 16.469 6.969 12.703 0 23-10.298 23-23 0-6.462-2.677-12.291-6.969-16.469z" style="opacity:.1"/>
    <path d="m26 14c-0.81944 0-1.4861 0.17528-1.9766 0.58398-0.49044 0.4087-0.7511 1.0055-0.88867 1.6934-0.19718 0.98588-0.17932 2.3297-0.1543 3.8652a11 8 0 0 0-5.5723 2.0742 3 3 0 0 0-2.4082-1.2168 3 3 0 0 0-3 3 3 3 0 0 0 2.123 2.8672 11 8 0 0 0-0.12305 1.1328 11 8 0 0 0 11 8 11 8 0 0 0 11-8 11 8 0 0 0-0.12305-1.1348 3 3 0 0 0 2.123-2.8652 3 3 0 0 0-3-3 3 3 0 0 0-2.4121 1.2207 11 8 0 0 0-7.5879-2.2207 11 8 0 0 0-1.0156 0.03711c-0.01814-1.4925-0.02682-2.776 0.13086-3.5645 0.11243-0.56214 0.28927-0.90284 0.54883-1.1191 0.25956-0.2163 0.65538-0.35352 1.3359-0.35352 0.36237 0 1.201 0.18967 2.0996 0.47461 0.36555 0.11591 0.74831 0.25084 1.127 0.38672a3 3 0 0 0-0.22656 1.1387 3 3 0 0 0 3 3 3 3 0 0 0 3-3 3 3 0 0 0-3-3 3 3 0 0 0-2.2246 0.99219c-0.45672-0.16709-0.92348-0.32815-1.373-0.4707-0.9351-0.29651-1.7647-0.52148-2.4023-0.52148z" style="fill:#101010;opacity:.1;paint-order:normal"/>
    <path d="m25 13c-0.81944 0-1.4861 0.17528-1.9766 0.58398-0.49044 0.4087-0.7511 1.0055-0.88867 1.6934-0.19718 0.98588-0.17932 2.3297-0.1543 3.8652a11 8 0 0 0-5.5723 2.0742 3 3 0 0 0-2.4082-1.2168 3 3 0 0 0-3 3 3 3 0 0 0 2.123 2.8672 11 8 0 0 0-0.12305 1.1328 11 8 0 0 0 11 8 11 8 0 0 0 11-8 11 8 0 0 0-0.12305-1.1348 3 3 0 0 0 2.123-2.8652 3 3 0 0 0-3-3 3 3 0 0 0-2.4121 1.2207 11 8 0 0 0-7.5879-2.2207 11 8 0 0 0-1.0156 0.03711c-0.01814-1.4925-0.02682-2.776 0.13086-3.5645 0.11243-0.56214 0.28927-0.90284 0.54883-1.1191 0.25956-0.2163 0.65538-0.35352 1.3359-0.35352 0.36237 0 1.201 0.18967 2.0996 0.47461 0.36555 0.11591 0.74831 0.25084 1.127 0.38672a3 3 0 0 0-0.22656 1.1387 3 3 0 0 0 3 3 3 3 0 0 0 3-3 3 3 0 0 0-3-3 3 3 0 0 0-2.2246 0.99219c-0.45672-0.16709-0.92348-0.32815-1.373-0.4707-0.9351-0.29651-1.7647-0.52148-2.4023-0.52148z" style="fill:#f9f9f9;paint-order:normal"/>
    
    <path d="m19.5 24c-0.82843 0-1.5 0.67157-1.5 1.5s0.67157 1.5 1.5 1.5 1.5-0.67157 1.5-1.5-0.67157-1.5-1.5-1.5zm9 0c-0.82843 0-1.5 0.67157-1.5 1.5s0.67157 1.5 1.5 1.5 1.5-0.67157 1.5-1.5-0.67157-1.5-1.5-1.5z" style="fill:#f74808;paint-order:normal"/>
</svg>
